<svg xmlns="http://www.w3.org/2000/svg" enable-background="new 0 0 1080 1080" viewBox="0 0 1080 1080" id="girl-finding-way-during-trekking"><path fill="#ebf7ff" d="M148.49 980.29c-67.58-52.75-53.6-120.33-65.25-178.59s41.95-135.17 11.65-179.45-36.64-98.45 20.13-140.11 685.92-7.03 685.92-7.03 215.62 234.61 170.35 358.19 22.47 146.99 22.47 146.99H148.49z"></path><path fill="#f2f2f2" d="M85.06 513.11c43.49-124.44 93.59-267.93 127.44-277.43s112.84 143.87 121.87 157.46C356.94 330 419.08 158.47 474.9 147.19c85.16 13.54 166.41 267.01 166.41 267.01s69.05-189.85 106.75-202.47c62.52 23.49 170.47 301.39 170.47 301.39H85.06z"></path><path fill="#dcf2ff" d="M697.6 227.09c-18.05-17.08-39.96-21.87-67.05-20.6-4.44.21-9.4.95-11.96 4.02-2.55 3.07.21 8.67 4.53 7.81-30.6-14.48-67.08-19.92-101.72-15.18-3.83.52-8 1.36-10.28 4-2.29 2.64-.77 7.47 3.11 7.51-28.46-11.81-79.77 10.99-74.63 12.96l258-.52z"></path><path fill="#1a87d8" d="M218.72 1010.47c-28.77-54.74-81.84-96.12-141.94-110.69a889.756 889.756 0 0 0 140.43 120l1.51-9.31z"></path><path fill="#2a94f4" d="M238.77 1028.46C169.9 973.08 120.89 893.52 102.4 807.1a1323.774 1323.774 0 0 1 140.25 223.02l-3.88-1.66z"></path><path fill="#1a87d8" d="M225.28 1034.79c-13.43-42.16-26.92-84.65-32.01-128.6s-1.28-90 18.51-129.57c28.74 85.97 32.35 180.18 10.26 268.09l3.24-9.92z"></path><path fill="#b0e1ff" d="M228.37 1038.02c-50.4-72.73-71.35-165.26-57.21-252.6 44.96 74.55 49.17 165.86 52.15 252.87l5.06-.27z"></path><path fill="#2a94f4" d="M223.72 1007.16c-12.06-72.79 16.89-151 73.44-198.39-6.56 77.83-33.7 153.83-77.94 218.19l4.5-19.8z"></path><path fill="#1a87d8" d="M995.05 982.79c-19.99-35.47-55.72-61.68-95.55-70.11a586.162 586.162 0 0 0 94.74 76.27l.81-6.16z"></path><path fill="#2a94f4" d="M1008.59 994.24c-46.4-35.11-80.19-86.53-94.03-143.05a870.845 870.845 0 0 1 96.61 144.07l-2.58-1.02z"></path><path fill="#1a87d8" d="M999.83 998.67c-9.65-27.49-19.35-55.19-23.55-84.02s-2.58-59.21 9.68-85.63c20.58 56.02 24.77 117.96 11.93 176.24l1.94-6.59z"></path><path fill="#b0e1ff" d="M1001.93 1000.73c-34.57-46.89-50.15-107.39-42.53-165.15 31.03 48.2 35.56 108.21 39.2 165.42l3.33-.27z"></path><path fill="#2a94f4" d="M998.27 980.51c-9.34-47.67 8.2-99.71 44.5-131.99-2.81 51.35-19.21 101.89-47.09 145.11l2.59-13.12z"></path><path fill="#f2f2f2" d="M991.36 1044.85H145.42c-29.84 0-40.94-49.97-15.38-69.52 91.32-69.87 308.73-119.28 508.29-119.28 209.82 0 336.03 54.63 377.46 130.22 13.54 24.71-.72 58.58-24.43 58.58z"></path><path fill="#0e538c" d="M772.04 946.65s-10.36-9.28-21.38-8.18c-11.02 1.1-18.33 14.7-16.13 23.51s15.6 12.21 32.06 15.52c16.46 3.31 39.97 5.51 37.03-4.41-.93-3.15-1.25-6.74-1.24-10.17.01-7.99-6.2-14.6-14.17-15.15l-16.17-1.12zM883.76 946.65s-10.36-9.28-21.38-8.18c-11.02 1.1-18.33 14.7-16.13 23.51s15.6 12.21 32.06 15.52c16.46 3.31 39.97 5.51 37.03-4.41-.93-3.15-1.25-6.74-1.24-10.17.01-7.99-6.2-14.6-14.17-15.15l-16.17-1.12z"></path><path fill="#f7c39f" d="M902.87 809.09c3.32 62.48.37 146.47.37 146.47h-27.89s-7.1-67.67-15.34-146.47c-5.05-48.29-10.53-100.76-15.06-144.39-5.63-54.19-9.8-94.76-9.88-96.7 0 0 12.07-3.82 27.12-7.07 23.98-5.19 55.54-8.94 57.97 6.49 3.79 23.99-18.45 135.73-25.81 181.39 4.49 10.51 7.09 33.41 8.52 60.28z"></path><path fill="#fcd2b1" d="M847.64 653.84c-9.4 36.86-28.66 79.24-34.64 98.52 3.03 8.08 2.51 30.1.31 56.73-4.96 60.12-18.39 143.77-18.39 143.77s-12.16 6.08-28.32 0c2.17-45.27 5.3-95.35 8.66-143.77 8.37-120.62 18.21-230.96 18.21-230.96s33.07-41.51 68.72-17.2c.06 22.81-4.49 53.52-14.55 92.91z"></path><path fill="#ffbe55" d="M813.31 809.09c-4.96 60.12-18.39 143.77-18.39 143.77s-12.16 6.08-28.32 0c2.17-45.27 5.3-95.35 8.66-143.77h38.05zM903.25 955.56h-27.89s-7.1-67.67-15.34-146.47h42.86c3.32 62.47.37 146.47.37 146.47z"></path><path fill="#cce9ff" d="m801.35 426.2-37.9 202.21s169.57 4.92 182.11-4.22c-1.39-35.73-18.55-164.2-49.1-198s-95.11.01-95.11.01z"></path><path fill="#fcd2b1" d="m733.31 194.58 25.78-22.24s34.92-6.85 45.69-8.49c-4.9 7.51-34.59 17.3-33.61 17.3 9.79-.33 20.45-.33 22.3 1.31-.76 2.94-29.48 6.85-33.07 8.16-3.59 1.96-20.56 14.76-20.56 14.76l-6.53-10.8zM820.31 241.85s8.8-1.91 9.99 0c1.19 1.91 4.77 8.79-5 16.92 13.38 1.25 32.77-3.86 35.9-15.54 3.13-11.68-2.24-24.19-2.24-24.19l-13.72-8.06-24.93 30.87z"></path><path fill="#0b4870" d="M805.53 183.81c-6-2.3-10.65-7.87-11.79-14.19-1.14-6.33 1.31-13.19 6.23-17.32 4.16-3.49 9.72-4.96 15.15-5.1 5.43-.14 10.81.93 16.13 2 11.67 2.35 24.53 5.45 31.21 15.3 6.55 9.66 4.89 22.48 2.97 33.99-1.4 8.4-3.34 17.7-10.29 22.61-6.06 4.28-14.56 3.85-21.17.47-6.61-3.38-11.59-9.25-15.71-15.42-4.11-6.17-7.55-12.81-12.06-18.69l-.67-3.65z"></path><path fill="#ffe3ca" d="M847.3 210.99c5.97-2.99 10.86-12.76 6.79-17.37-4.07-4.61-10.31 1.63-10.86 3.8-.54 2.17 4.07 13.57 4.07 13.57z"></path><path fill="#ffe3ca" d="M803.77 170.54c-3.4 11.48-8.29 63.77 10.42 72.7 18.92-2.76 30.61-17.64 34.01-36.35 0 0 1.06-52.3-44.43-36.35z"></path><path fill="#0b4870" d="M797.76 162.16c6.01 8.37 33.77 44.78 61.21 37.92-1.71-21.26-16.62-57.12-61.21-37.92z"></path><path fill="#ffbe55" d="m841.96 201.47 6.24-11.53-3.12-2.25-6.13 11.98z"></path><path fill="#cce9ff" d="M813 267.09c8.66-14.11 38.48-27.72 57.39-24.44 18.92 3.28 15.07 33.1 15.07 33.1L813 267.09z"></path><path fill="#2a94f4" d="M885.78 432.8h-85.23s.76-5.83.07-23.4c-.02-.54-.04-1.09-.07-1.64-.71-16.55-3.16-29.37-5.63-39.84-4.89-20.71-9.84-32.28-1.45-45.47-180.47-72.29-60.66-130.49-60.66-130.49s13.11 7.66 16.63 9.52c-60.53 59.44 63.55 65.62 63.55 65.62s33.04 3.95 72.46 8.66.33 157.04.33 157.04z"></path><path fill="#0e538c" d="M991.09 479.83c-25.42 23.86-104.74 13.47-122.52 8.45-.53-.15-1.01-.29-1.43-.43-13.35-.53-28.86-9.09-42.77-26.72-29.62-116.3 3.05-185.53 16.45-203 .15-.18.28-.36.42-.54 0 0 17.34-21.4 78.25-17.66 60.92 3.74 67.86 186.47 71.6 239.9z"></path><path fill="#ffbe55" d="M812.33 389.1s-.35 27.67-.69 39.59c-1.42.45-6.2-8.9-11.02-19.3-.02-.54-.04-1.09-.07-1.64-.71-16.55-3.16-29.37-5.63-39.84 5.77 7.68 14.04 18.37 17.41 21.19zM839.52 259.93s-17.79-.22-29.66 6.95c7.19 3.67 19.37 12.13 19.37 12.13s9.45-17.92 10.29-19.08z"></path><path fill="#2a94f4" d="M923.67 239.49c32.78 12.5 50.23 50.22 47.3 75.13-2.93 24.91-59.23 60.49-103.83-5.07-2.86-19.96-7-51.69-25.89-51.96 6.48-23.19 82.42-18.1 82.42-18.1z"></path><path fill="#1b82ce" d="M912.31 404.62c-11.78 3.79-22.41 36.62-16.06 71 4.67 16.36 6.66 22.95 22.19 26.16 3.84-25.16 1.04-89.48-6.13-97.16z"></path><path fill="#2a94f4" d="M911.26 423.28c3.83 9.11 2.06 77.4 7.18 78.5 9.88-.37 66.9-4.99 75.32-22.19-2.56-38.05 1.98-70.23-5.23-73.9-16.73-3.66-75.98 9.21-77.27 17.59z"></path><path fill="#3fabfc" d="M914 403.95c23.15-5.89 71.3-6.3 74.71-3.83s10.23 59.1-37.36 44.77c-47.58-14.33-52.7-35.83-37.35-40.94z"></path><path fill="#0b4870" d="M868.57 488.28c-.53-.15-1.01-.29-1.43-.43-13.35-.53-28.86-9.09-42.77-26.72-29.62-116.3 3.05-185.53 16.45-203 16.11 17.97 48.63 97.1 27.75 230.15z"></path><path fill="#2a94f4" d="M858.75 388.62s1.32 63.93-2.02 68.95c-21.17.28-37.05-2.23-37.05-2.23l-8.56-8.63 1.21-41.94s35.63-20.75 46.42-16.15z"></path><path fill="#3fabfc" d="M860.91 385.15s-39.27-8.91-42.62-7.52c-3.34 1.39-15.75 27.77 2.79 36.21 18.53 8.43 39.83-28.69 39.83-28.69z"></path><path fill="#0b4870" d="M836.76 152.37c-4.24-11.21 21-27.04 36.9-30.46 15.9-3.42 33.16-.6 48.8 3.38 10.54 2.68 21.55 6.35 26.81 13.25 7.2 9.43.9 21.18-8.09 29.83-8.99 8.64-20.79 16.16-26.22 26.14-6.64 12.21-2.53 26 4.42 38.13s16.67 23.51 21.67 36.09c2.45 6.17 3.69 12.89.51 18.89-5.11 9.65-21.29 15.12-35.93 13.76-14.64-1.36-27.27-8.46-35-17.22-7.73-8.76-11.12-19.05-12.97-29.26-3.02-16.71-2.18-33.76 2.48-50.28 2.59-9.18 6.36-18.37 5.58-27.71s-7.32-19.18-19.68-22.83l-9.28-1.71z"></path><circle cx="934.74" cy="331.62" r="8.26" fill="#cce9ff"></circle><circle cx="971.29" cy="447.2" r="7.74" fill="#cce9ff"></circle><ellipse cx="818.98" cy="411.18" fill="#cce9ff" rx="7.74" ry="6.57" transform="rotate(-76.932 818.96 411.189)"></ellipse><circle cx="167.26" cy="134.23" r="51.47" fill="#ffbe55"></circle><path fill="#2a94f4" d="m122.39 439.23-10.01 78.68h20.01z"></path><path fill="#0e538c" d="m132.39 469.3-6.18 48.61h12.36z"></path><path fill="#2a94f4" d="m731.05 448.94-10 78.68h20z"></path><path fill="#0e538c" d="m592.93 431.36-5 39.34h10z"></path><path fill="#2a94f4" d="m600 415.08-7.07 55.62h14.14z"></path><path fill="#0e538c" d="m312.56 346.92-7.72 60.7h15.44z"></path><path fill="#2a94f4" d="m320.28 365.04-5.44 42.79h10.88zM712.36 365.04l-5.44 42.79h10.88z"></path><path fill="#0b4870" d="m719.54 351.35-7.18 56.48h14.36z"></path><path fill="#0e538c" d="m741.05 479.02-6.17 48.6h12.35z"></path><path fill="#dcf2ff" d="M432.63 120.96c-13.27-12.56-29.38-16.08-49.3-15.15-3.26.15-6.91.7-8.79 2.95s.15 6.37 3.33 5.74c-22.5-10.64-49.33-14.65-74.8-11.16-2.81.39-5.88 1-7.56 2.94-1.68 1.94-.56 5.49 2.29 5.52-20.93-8.68-58.66 8.08-54.88 9.53l189.71-.37z"></path></svg>