<svg xmlns="http://www.w3.org/2000/svg" enable-background="new 0 0 1920 1080" viewBox="0 0 1920 1080" id="lady-enjoying-surfing-in-sea"><path fill="#2a94f4" d="M755.57 331.64s-43.54-2.66-39.58 89.22c3.96 91.88 31.67 135.78-75.21 181.12s-166.25 181.35-67.29 240.01 408.37 131.34 489.18 0 116.96-229.93 273.06-240.01 215.47-8.66 199.63-86.56c-15.83-77.9-102.5-71.25-92.81-147.8 9.69-76.55-45.2-116.98-106.82-76.98-61.62 40.01-284.26 68.44-282.96-59.23 1.29-127.66-344.7-25.44-297.2 100.23z" opacity=".1"></path><path fill="#2a94f4" d="M738.78 435.34s-43.54-2.66-39.58 89.22 31.67 135.78-75.21 181.12-166.25 181.35-67.29 240.01 408.37 131.34 489.18 0c80.82-131.34 116.97-229.93 273.06-240.01s215.47-8.66 199.63-86.56c-15.83-77.9-102.5-71.25-92.81-147.8 9.69-76.55-45.2-116.98-106.82-76.98s-284.26 68.44-282.96-59.23c1.29-127.67-344.7-25.45-297.2 100.23z" opacity=".1"></path><path fill="#2a94f4" d="M686.15 493.08s-43.54-2.66-39.58 89.21c3.96 91.88 31.67 135.78-75.21 181.12-106.87 45.34-166.25 181.35-67.29 240.01s408.37 131.34 489.18 0 116.97-229.93 273.06-240.01 215.47-8.66 199.63-86.56c-15.83-77.9-102.5-71.25-92.81-147.8s-45.2-116.98-106.82-76.98-284.26 68.44-282.96-59.23-344.7-25.44-297.2 100.24z" opacity=".1"></path><path fill="#ffbe55" d="M620.17 921.27v28.11s157.13 9.91 320.8-112.92c171.2-128.47 259.92-267.54 259.92-267.54l-4.61-10.14-576.11 362.49z"></path><path fill="#ffbe55" d="M635.58 941.73c-10.67 0-18.4-10.21-15.41-20.46 17.82-61.16 100.51-248.65 460.88-371.71 47.24-16.13 115.22 9.22 115.22 9.22S912.01 941.73 635.58 941.73zM953.61 93.5s34.61-8.35 69.42 14.69c31.48 20.83 61.89 13.8 56.73-7.5s10.97-99.66 82.4-88.13 139.42 67.1 125.59 128.61c-13.83 61.51-67.77 124.61-158.33 99.4S994.3 298.7 920.95 224.19 953.61 93.5 953.61 93.5z"></path><circle cx="961" cy="162.35" r="69.42" fill="#ffbe55"></circle><path fill="#b97a59" d="M1146.28 86.79s2.44-22-3.26-30.15-25.66-29.33-33.81-24.44c-8.15 4.89-19.15 10.59-14.67 15.07 4.48 4.48 17.61 17 19.22 23.5 1.61 6.5-7.1-7.31-12.19-10.77s-12.42 4.68-7.74 7.74c4.68 3.06 13.34 20.27 26.78 23.52 3.41.83 8.55 4.07 8.55 4.07l17.12-8.54zM788.16 465.38s-17.28 13.83-19.01 23.62-2.59 38.89 6.63 41.19 21.03 6.05 21.03-.29-.43-24.47 3.03-30.21c3.46-5.73-.15 10.19 1 16.24 1.15 6.05 12.1 5.47 10.95 0-1.15-5.47 4.9-23.76-2.3-35.57-1.82-2.99-3.17-8.93-3.17-8.93l-18.16-6.05zM988.68 668.91s-3.68 17.71-27.37 27.21c0 0-12.64 9.51 10.27 9.51 8.69 0 18.96-.62 28.37-1.39 20.95-1.72 33.39-25.23 21.92-42.84-.35-.54-.72-1.06-1.1-1.57-10.77-14.16-27.62-9.49-32.09 9.08zM844.62 729.82s-15.84 27.65-26.21 40.62-38.89 21.6-40.62 29.38c-1.73 7.78 55.31 19.01 70.86 0 15.56-19.01 19.88-22.47 28.52-25.06s.86-31.11.86-31.11l-33.41-13.83z"></path><path fill="#0b4870" d="M993.08 664.34a19.42 19.42 0 0 0 15.89 3.72c5.26-1.09 10.02-3.55 6.89-9.1-61.6-109.46-93.33-111.05-93.33-111.05s113.93-63.52 116.81-66.4c2.88-2.88 22.08-50.94 22.08-50.94l-61.83 11.77s-107.9 56-122.86 71.87c-23.21 24.63-17.29 43.21-8.07 51.85 8 7.49 100.1 79.33 124.42 98.28z"></path><path fill="#0e538c" d="M931.61 271.81s5.18 38.89 32.84 63.52c42.74 38.07 35.14 107.01 35.14 107.01l9.79 75.76 111.19-91.31s4.99-9.06-1.11-17.51c-13.71-19-36.86-55.31-42.67-90.8-7.78-47.53-12.08-109.86-4.61-113.49 5.28-2.57-74.89 5.76-74.89 5.76s-76.05 18.44-85.26 32.26c-9.22 13.82 19.58 28.8 19.58 28.8z"></path><path fill="#ad6f53" d="m991.53 196.92 12.08 13.21s-5.46 22.8-33.11 24.96l-4.32-19.88 25.35-18.29z"></path><path fill="#0e538c" d="m1062.87 205.85-3.17 48.68s118.39-23.76 124.44-41.91-30.68-116.66-38.89-127.47c0 0-6.63 7.2-16.11 8.18 0 0 14.38 84.38 14.38 92.11s-70.57 15.8-80.65 20.41zM912.03 243s-83.25 67.69-98.8 114.36c-15.56 46.67-25.06 108.02-25.06 108.02l18.15 6.05s32.84-100.24 56.17-117.53c23.33-17.28 60.36-47.69 75.98-57.55 15.61-9.85 19.65-68.32-26.44-53.35zM1055.51 433.93s-112.38 45.28-136 80.43c-23.62 35.14-74.89 215.47-74.89 215.47s41.24 25.97 33.41 13.83c-2.27-3.52 73.17-132.51 76.62-188.39 0 0 155.03-27.89 175.14-57.61 18.16-26.85 17.11-47.65-10.33-88.38.01-.01-55.85 17.96-63.95 24.65z"></path><path fill="#b97a59" d="M902.81 141.61s19.9 77.71 50.41 86.13c12.53 3.46 38.31-30.82 38.31-30.82s-9.79-1.15-8.5-16.28 1.59-21.94-3.89-24.63c-8.93-4.38-14.69 1.73-15.12 16.42l-1 4.48c-.62 2.77-2.83 5.05-5.65 5.39-1.91.23-3.67-.58-3.72-4.25-.43-28.95-15.92-39.23-50.84-36.44z"></path></svg>