<svg xmlns="http://www.w3.org/2000/svg" viewBox="0 0 1920 1080" id="person-finding-location-for-vacation"><path fill="#2A94F4" d="M1237.882 1054.65H751.948c-101.837 0-197.892-47.32-259.953-128.061-68.095-88.592-86.385-205.765-48.527-310.895l88.557-245.921c36.562-101.532 120.745-178.571 225.113-206.01l250.909-65.965c119.339-31.375 246.187 6.91 328.241 99.069l194.667 218.64c90.286 101.405 108.731 247.967 46.385 368.58l-48.2 93.247c-56.295 108.912-168.655 177.316-291.258 177.316z" opacity=".11"></path><path fill="#2A94F4" d="M615.197 1017.69c0 32.446 176.072 58.771 393.288 58.771 217.186 0 393.258-26.326 393.258-58.771 0-32.464-176.072-58.786-393.258-58.786-217.216 0-393.288 26.322-393.288 58.786z" opacity=".2"></path><path fill="#FCD2B1" d="m871.991 227.036 4.705-21.605s22.521-5.723 24.173-29.481c1.65-23.76-44.013-33.179-50.199-19.894-2.522 5.416-4.689 17.09-6.371 29.02-2.445 17.335-3.866 35.209-3.866 35.209l31.558 6.751z"></path><path fill="#FFBE55" d="M821.964 204.533s18.656-8.607 35.047-1.102c6.431 2.944 21.371 16.276 21.371 16.276s-9.639 168.302-13.431 182.137c1.01.345 1.97.705 2.998 1.096 39.676 15.837 98.349 51.311 124.214 66.139 12.489 7.165 7.549 19.861 15.274 31.371 5.256 7.853 9.15 16.485 11.402 25.779 3.524 14.655 2.766 29.847-10.031 39.082-4.788 3.474-10.428 5.281-16.067 5.492a30.549 30.549 0 0 1-17.898-4.894c-35.732-23.509-135.186-86.002-154.227-103.734-3.331-3.118-6.023-6.416-8.089-9.78-.81-1.076-1.535-2.239-2.312-3.549-19.113-34.213 11.749-244.313 11.749-244.313z"></path><path fill="#0B4870" d="M1047.147 1017.641s76.569 3.304 134.378-48.475c46.254-41.431 80.489-110.701 90.253-141.005 9.764-30.305 13.956-90.794-.666-100.897-14.623-10.104-279.39 241.902-279.39 241.902l55.425 48.475z"></path><path fill="#0E538C" d="M704.624 853.847s31.9-36.098 118.029-35.982c67.065.09 287.097 60.375 287.097 60.375l-95.699 102.313-309.427-126.706z"></path><path fill="#FCD2B1" d="m1104.926 999.693-44.66-19.139-15.252 28.709 20.216 16.756h34.113z"></path><path fill="#0E538C" d="M1065.23 1026.019s14.974 1.862 26.139-11.434 4.785-18.879 11.962-19.677c7.177-.797 38.28 13.557 69.382 10.368s40.672-7.936 42.267 3.608c1.595 11.545-2.49 54.425-39.972 52.83-37.483-1.595-109.778-35.695-109.778-35.695z"></path><path fill="#0B4870" d="M822.653 868.65c48.738 29.703 250.012 97.245 250.012 97.245s7.509 51.789-36.006 67.234c0 0-242.716-68.481-300.135-94.82-57.42-26.339-39.875-72.404-31.9-84.461 7.975-12.058 57.42-22.137 118.029 14.802z"></path><path fill="#FFBE55" d="M1160.279 727.455c-7.873 20.429-9.756 42.725-4.988 64.144 9.445 42.517-1.304 45.369-1.304 45.369s-51.138 35.498-101.061 40.81c-44.704 4.756-123.186-16.943-122.37-54.865 0 0 34.168-56.848 29.789-152.286-4.522-97.909 18.774-120.371 40.226-148.161 31.727-41.101-93.384-68.709 140.348-40.151 51.063 6.239 74.749 20.249 74.343 57.301-.133 12.314-10.309 32.102-13.571 50.451-8.269 46.627-28.009 102.601-41.412 137.388z"></path><path fill="#1282D6" d="M1134.046 678.562c-19.138 51.043-76.139 84.93-130.124 77.379-20.147-2.833-39.565-10.834-55.821-23.078-19.746-14.858-34.519-36.063-42.13-59.554-3.125-9.593-5.046-19.564-5.63-29.655-1.167-20.257 2.797-39.164 10.542-55.882 14.165-30.689 41.048-54.058 72.345-65.086 32.89-11.575 70.655-9.52 103.654 12.025 27.479 17.947 45.9 47.918 52.028 80.066v.012c4.061 21.253 2.747 43.455-4.864 63.773z"></path><path fill="#9DDA9C" d="M1012.713 665.236c-4.669 2.566-10.323 3.368-14.311 6.882-11.66 10.274.62 31.893-8.766 44.258-4.742 6.262-14.189 7.782-21.339 4.499-7.137-3.283-11.928-10.505-13.691-18.165-1.958-8.499-1.289-18.907-8.317-24.075-3.66-2.687-8.45-3.088-12.973-3.38-6.785-.45-13.581-.888-20.366-1.338-2.298-.158-4.657-.316-6.979-.608-3.125-9.593-5.046-19.564-5.63-29.655-1.167-20.257 2.797-39.164 10.542-55.882 3.587-2.03 7.611-3.125 11.721-2.724 7.186.693 13.229 5.63 20.172 7.587 12.828 3.611 28.829-2.699 38.629 6.323 7.113 6.554 6.724 17.606 7.162 27.26.45 9.666 4.17 21.315 13.691 23.029 5.338.973 12.086-1.289 15.478 2.955 3.33 4.146-.366 10.468-5.023 13.034zM1138.91 614.776v.012a42.316 42.316 0 0 1-5.885 10.286c-4.851 6.213-13.788 11.174-20.318 6.785-9.423-6.323-3.429-24.476-13.363-29.972-10.809-5.994-22.688 11.952-34.531 8.414-11.356-3.404-10.432-22.457-21.363-27.053-7.538-3.173-15.588 2.529-22.141 7.405-6.566 4.876-16.062 9.18-22.299 3.903-5.265-4.45-4.353-12.791-1.958-19.247 2.395-6.456 5.885-13.156 4.28-19.856-2.432-10.092-15.162-14.895-18.032-24.865-.754-2.614-.705-5.301-.073-7.903 32.89-11.575 70.655-9.52 103.654 12.025 27.48 17.947 45.9 47.918 52.029 80.066zM1073.691 705.425c5.487-7.23 15.449-8.941 23.433-13.258 7.049-3.812 13.109-10.715 13.202-18.728.093-8.013-8.013-15.868-15.636-13.397-4.242 1.375-7.16 5.278-11.127 7.313-6.627 3.4-14.572 1.029-21.838-.607-7.266-1.636-16.193-1.895-20.726 4.016-7.398 9.651-1.766 23.868-9.759 34.976-7.18 9.978-16.834 18.245-6.123 30.129 8.023 8.902 23.672 9.709 33.05 2.798 11.455-8.44 7.69-22.919 15.524-33.242z"></path><path fill="#FCD2B1" d="M1105.026 438.993c-1.342-4.086-6.272-5.727-9.877-3.382-12.498 8.128-23.959 13.819-42.223 13.819-3.764 0-5.407-.612-6.612-1.471-2.866-2.045-6.838-1.67-9.051 1.068-.601.743-.792 1.315.297 1.548 6.459 1.377 11.148 6.829 11.522 13.381l1.44 26.839c.047.868.264 1.718.639 2.503l7.181 15.001c1.723 3.599 6.215 4.866 9.565 2.697l12.842-8.314 24.67-15.99a6.618 6.618 0 0 0 3.005-5.971l-2.439-38.493a6.444 6.444 0 0 0-.57-2.234 9.655 9.655 0 0 1-.389-1.001z"></path><path fill="#0B4870" d="M994.274 354.773c-.69-.055-.308 3.866-5.794 10.216-5.486 6.351-5.926 19.165-5.76 18.751.165-.414-10.605-29.809-7.518-37.011 3.086-7.201 9.435-9.025 11.051-6.676 1.616 2.348 8.021 14.72 8.021 14.72z"></path><path fill="#FFE3CA" d="M1116.981 391.424c.671 6.88.833 13.057.141 17.549a11.985 11.985 0 0 1-.409 1.905c-.139.598-.274 1.252-.536 1.915-6.373 19.94-36.974 48.373-58.141 50.936-2.796.247-5.542.33-8.176.242-29.397-.713-46.208-20.633-55.777-41.94-.324-.772-.644-1.49-.963-2.21-8.411-19.808-10.858-40.25-11.489-47.401-.149-1.694-.17-2.653-.17-2.653-1.588-7.814.05-13.937.978-16.474.306-.883.522-1.328.522-1.328s.377-.087 1.003-.249c8.195-2.218 63.941-17.177 65.149-17.284 1.208-.107 57.031 2.489 57.031 2.489s8.459 31.226 10.837 54.503z"></path><path fill="#0B4870" d="M958.384 325.442s1.808 42.606 71.809 25.565c45.057-10.969 55.523 13.678 57.26 32.636.561 6.115 7.54 9.278 12.515 5.679 3.41-2.467 10.678-6.079 14.245 1.3 9.363 19.371-7.829 40.594-8.071 41.109 0 0 13.667 9.578 19.909-30.132.879-5.59 1.924-73.942-11.935-93.089-13.858-19.147-30.4-18.279-30.4-18.279s-17.517-14.762-58.793-2.684c-14.494 4.241-26.566 5.26-36.13 4.797-17.899-.866-32.341 14.471-30.495 32.295l.086.803z"></path><path fill="#FCD2B1" d="m930.556 970.909 45.244-17.715 14.335 29.179-20.737 16.106-34.096-1.081z"></path><path fill="#0E538C" d="M969.398 998.479s-15.026 1.387-25.764-12.256c-10.738-13.644-4.184-19.021-11.333-20.046-7.149-1.024-38.69 12.337-69.676 8.164-30.985-4.174-40.4-9.221-42.36 2.266-1.96 11.488.764 54.477 38.278 54.07 37.516-.406 110.855-32.198 110.855-32.198zM960.306 937.98s114.355-93 162.204-142.445c47.85-49.444 78.154-97.736 133.979-78.375 55.825 19.361-14.354 123.179-65.394 163.779-51.039 40.6-177.116 130.138-177.116 130.138s-67.636-23.976-53.673-73.097z"></path><path fill="#FFBE55" d="M924.573 43.729c-13.191-34.924-52.197-52.542-87.121-39.35-34.924 13.191-52.542 52.197-39.35 87.12a67.403 67.403 0 0 0 13.519 21.933l-.579.219 89.817 91.487c7.737 7.88 21.15 2.814 21.745-8.214l6.905-128.021-.579.219a67.389 67.389 0 0 0-4.357-25.393zm-51.24 55.642c-17.653 6.668-37.369-2.237-44.036-19.89-6.668-17.653 2.237-37.369 19.89-44.036 17.653-6.668 37.369 2.237 44.036 19.89 6.668 17.652-2.238 37.368-19.89 44.036z"></path><path fill="#FFE3CA" d="M849.652 152.851a13.319 13.319 0 0 1 5.144-8.489c12.811-9.633 33.978-23.64 40.872-16.623 7.739 7.878 38.92 32.684-.147 64.203l-9.381 9.077-42.187-13.435 5.699-34.733z"></path><path fill="#FFBE55" d="M947.447 661.084c1.104-24.655-17.988-45.538-42.643-46.642s-45.538 17.988-46.642 42.643a44.55 44.55 0 0 0 2.486 16.851l-.409-.018 30.672 79.012c2.642 6.806 12.112 7.23 15.352.688l37.611-75.954-.409-.018a44.578 44.578 0 0 0 3.982-16.562zm-45.647 20.42c-12.462-.558-22.113-11.113-21.555-23.576.558-12.462 11.113-22.113 23.576-21.555 12.462.558 22.113 11.113 21.555 23.576-.558 12.463-11.113 22.113-23.576 21.555z"></path><path fill="#FFBE55" d="M908.83 656.302c-7.235-23.596-32.229-36.858-55.825-29.623-23.596 7.235-36.858 32.229-29.623 55.825a44.576 44.576 0 0 0 7.998 15.039l-.391.12 55.413 64.134c4.773 5.524 13.836 2.745 14.692-4.505l9.935-84.172-.391.12a44.555 44.555 0 0 0-1.808-16.938zm-36.144 34.557c-11.927 3.657-24.56-3.047-28.217-14.973-3.657-11.927 3.047-24.56 14.973-28.217 11.927-3.657 24.56 3.046 28.217 14.973 3.657 11.926-3.047 24.56-14.973 28.217z" opacity=".85"></path><path fill="#FCD2B1" d="m922.174 743.612-7.484-3.214c-7.84-3.367-14.259-9.413-17.954-17.104-4.28-8.906-14.326-18.758-14.326-18.758-12.053 4.735 10.116 22.432-5.51 26.235-3.566.868-7.692-.34-12.148.739-5.57 1.348-13.514-13.707-14.627-10.186-7.964 25.182 19.061 41.958 30.097 43.39 14.533 1.885 45.046 11.022 45.046 11.022l-3.094-32.124z"></path><path fill="#FFBE55" d="M915.829 798.099s-13.839-15.186-11.634-33.078c.865-7.02 9.062-25.288 9.062-25.288s163.356-41.635 177.69-42.198c.023-1.067.077-2.091.139-3.189 3.116-42.606 26.732-95.252 33.056-124.387 3.059-14.07 9.139-27.195 17.778-38.035 5.899-7.382 12.953-13.701 21.132-18.654 12.907-7.785 27.618-11.65 40.287-2.24 4.757 3.515 8.184 8.347 10.087 13.658a30.55 30.55 0 0 1 .739 18.54c-11.621 41.163-41.164 154.846-52.318 178.352-1.966 4.117-4.298 7.68-6.88 10.665-.781 1.097-1.671 2.14-2.685 3.276-26.842 28.553-236.453 62.578-236.453 62.578z"></path></svg>