<svg xmlns="http://www.w3.org/2000/svg" enable-background="new 0 0 1000 1000" viewBox="0 0 1000 1000" id="travel"><path fill="#ebd9ff" d="M0 0h1000v1000H0z"></path><path fill="#fdc858" d="M236.123 471.051c-23.069-23.42-37.304-55.565-37.304-91.036 0-71.649 58.083-129.733 129.733-129.733s129.733 58.083 129.733 129.733l-99.903-76.043-122.259 167.079z"></path><path fill="none" stroke="#d4c0e2" stroke-linecap="round" stroke-linejoin="round" stroke-miterlimit="10" stroke-width="8" d="M328.551 215.801v13.962M328.551 189.825v14.611M328.551 157.679v19.158M300.036 218.296l2.424 13.75M295.525 192.714l2.537 14.39M289.943 161.057l3.327 18.867M272.387 225.704l4.775 13.12M263.502 201.295l4.998 13.73M252.508 171.088l6.552 18.002M246.444 237.802l6.981 12.091M233.456 215.306l7.306 12.653M217.383 187.467l9.579 16.591M222.996 254.22l8.975 10.695M206.299 234.321l9.392 11.193M185.636 209.696l12.315 14.676M202.756 274.461l10.695 8.974M182.857 257.763l11.193 9.392M158.232 237.101l14.675 12.314M186.337 297.908l12.092 6.981M163.841 284.92l12.654 7.306M136.002 268.847l16.591 9.579M174.24 323.851l13.12 4.775M149.831 314.966l13.73 4.998M119.624 303.972l18.002 6.552M166.832 351.5l13.749 2.424M141.25 346.989l14.389 2.537M109.593 341.407l18.866 3.327M164.337 380.015h13.962M138.361 380.015h14.611M106.215 380.015h19.158M166.832 408.531l13.749-2.424M141.25 413.042l14.389-2.537M109.593 418.624l18.866-3.327M174.24 436.18l13.12-4.775M149.831 445.064l13.73-4.997M119.624 456.059l18.002-6.552M186.337 462.123l12.092-6.981M163.841 475.111l12.654-7.306M136.002 491.184l16.591-9.579M482.862 323.851l-13.12 4.775M507.272 314.966l-13.73 4.998M470.765 297.908l-12.091 6.981M493.261 284.92l-12.654 7.306M521.1 268.847l-16.591 9.579M454.347 274.461l-10.696 8.974M474.246 257.763l-11.193 9.392M498.871 237.101l-14.676 12.314M434.106 254.22l-8.974 10.695M450.803 234.321l-9.392 11.193M471.466 209.696l-12.314 14.676M410.658 237.802l-6.98 12.091M423.646 215.306l-7.305 12.653M439.719 187.467l-9.578 16.591M384.716 225.704l-4.775 13.12M393.6 201.295l-4.997 13.73M404.595 171.088l-6.553 18.002M357.067 218.296l-2.425 13.75M361.577 192.714l-2.537 14.39M367.159 161.057l-3.326 18.867"></path><path fill="none" stroke="#523160" stroke-linecap="round" stroke-linejoin="round" stroke-miterlimit="10" stroke-width="8" d="M214.5 740.677H75.148M431.5 740.677H232M792.5 740.677h-18.125M896.5 740.677h-86.586M918 740.677h-6.5"></path><path fill="none" stroke="#d4c0e2" stroke-linecap="round" stroke-linejoin="round" stroke-miterlimit="10" stroke-width="8" d="m162.817 570.552 196.124-266.201 109.597 84.318"></path><path fill="none" stroke="#d4c0e2" stroke-linecap="round" stroke-linejoin="round" stroke-miterlimit="10" stroke-width="8" d="M418.449 456.713 558.454 266.52l237.835 216.022"></path><ellipse cx="110.315" cy="620.167" fill="#fdc858" rx="17.847" ry="7.762" transform="rotate(-37.373 110.303 620.147)"></ellipse><ellipse cx="110.315" cy="588.538" fill="#fdc858" rx="17.847" ry="7.762" transform="rotate(-37.373 110.303 588.52)"></ellipse><ellipse cx="110.315" cy="697.092" fill="#fdc858" rx="17.847" ry="7.762" transform="rotate(-37.373 110.302 697.07)"></ellipse><ellipse cx="110.315" cy="657.568" fill="#fdc858" rx="17.847" ry="7.762" transform="rotate(-37.373 110.302 657.548)"></ellipse><ellipse cx="110.315" cy="620.167" fill="none" stroke="#523160" stroke-linecap="round" stroke-linejoin="round" stroke-miterlimit="10" stroke-width="8" rx="17.847" ry="7.762" transform="rotate(-37.373 110.303 620.147)"></ellipse><ellipse cx="110.315" cy="588.538" fill="none" stroke="#523160" stroke-linecap="round" stroke-linejoin="round" stroke-miterlimit="10" stroke-width="8" rx="17.847" ry="7.762" transform="rotate(-37.373 110.303 588.52)"></ellipse><ellipse cx="110.315" cy="697.092" fill="none" stroke="#523160" stroke-linecap="round" stroke-linejoin="round" stroke-miterlimit="10" stroke-width="8" rx="17.847" ry="7.762" transform="rotate(-37.373 110.302 697.07)"></ellipse><ellipse cx="110.315" cy="657.568" fill="none" stroke="#523160" stroke-linecap="round" stroke-linejoin="round" stroke-miterlimit="10" stroke-width="8" rx="17.847" ry="7.762" transform="rotate(-37.373 110.302 657.548)"></ellipse><ellipse cx="81.949" cy="588.556" fill="#fdc858" rx="7.762" ry="17.847" transform="rotate(-52.627 81.956 588.57)"></ellipse><ellipse cx="81.949" cy="681.215" fill="#fdc858" rx="7.762" ry="17.847" transform="rotate(-52.627 81.957 681.23)"></ellipse><ellipse cx="81.949" cy="641.587" fill="#fdc858" rx="7.762" ry="17.847" transform="rotate(-52.627 81.957 641.601)"></ellipse><ellipse cx="81.949" cy="588.556" fill="none" stroke="#523160" stroke-linecap="round" stroke-linejoin="round" stroke-miterlimit="10" stroke-width="8" rx="7.762" ry="17.847" transform="rotate(-52.627 81.956 588.57)"></ellipse><ellipse cx="81.949" cy="681.215" fill="none" stroke="#523160" stroke-linecap="round" stroke-linejoin="round" stroke-miterlimit="10" stroke-width="8" rx="7.762" ry="17.847" transform="rotate(-52.627 81.957 681.23)"></ellipse><ellipse cx="81.949" cy="641.587" fill="none" stroke="#523160" stroke-linecap="round" stroke-linejoin="round" stroke-miterlimit="10" stroke-width="8" rx="7.762" ry="17.847" transform="rotate(-52.627 81.957 641.601)"></ellipse><path fill="none" stroke="#523160" stroke-linecap="round" stroke-linejoin="round" stroke-miterlimit="10" stroke-width="8" d="M96.132 593.518v145.288"></path><ellipse cx="193.303" cy="704.751" fill="none" stroke="#523160" stroke-linecap="round" stroke-linejoin="round" stroke-miterlimit="10" stroke-width="8" rx="17.847" ry="7.762" transform="rotate(-37.373 193.287 704.73)"></ellipse><ellipse cx="193.303" cy="671.551" fill="none" stroke="#523160" stroke-linecap="round" stroke-linejoin="round" stroke-miterlimit="10" stroke-width="8" rx="17.847" ry="7.762" transform="rotate(-37.373 193.288 671.53)"></ellipse><ellipse cx="193.303" cy="641.587" fill="none" stroke="#523160" stroke-linecap="round" stroke-linejoin="round" stroke-miterlimit="10" stroke-width="8" rx="17.847" ry="7.762" transform="rotate(-37.373 193.288 641.568)"></ellipse><ellipse cx="164.937" cy="681.215" fill="none" stroke="#523160" stroke-linecap="round" stroke-linejoin="round" stroke-miterlimit="10" stroke-width="8" rx="7.762" ry="17.847" transform="rotate(-52.627 164.948 681.23)"></ellipse><ellipse cx="164.937" cy="641.587" fill="none" stroke="#523160" stroke-linecap="round" stroke-linejoin="round" stroke-miterlimit="10" stroke-width="8" rx="7.762" ry="17.847" transform="rotate(-52.627 164.947 641.6)"></ellipse><path fill="none" stroke="#523160" stroke-linecap="round" stroke-linejoin="round" stroke-miterlimit="10" stroke-width="8" d="M179.12 648.305v90.501"></path><path fill="none" stroke="#d4c0e2" stroke-linecap="round" stroke-linejoin="round" stroke-miterlimit="10" stroke-width="8" d="m295.542 390.885 9.712 12.606 23.782-9.398 30.666 11.792 12.667-11.792 24 7.911 13.006-19.786 30.489 12.226 12.057-18.559M496.525 350.648l30.344-7.096 11.167 20.5 31.5-17 23 14.5 14.833-22 38.608 6.463M624.282 275.762H766.73a16.145 16.145 0 0 0 1.274-6.306c0-8.944-7.25-16.194-16.194-16.194-1.763 0-3.456.291-5.045.812-3.736-10.106-13.457-17.312-24.862-17.312-3.026 0-5.93.514-8.639 1.448-5.734-12.646-18.46-21.448-33.25-21.448-20.158 0-36.5 16.342-36.5 36.5 0 2.037.175 4.032.495 5.978-9.067 1.735-16.485 8.092-19.727 16.522zM871.445 340.915c.002-.097.007-.192.007-.289 0-9.569-7.757-17.326-17.326-17.326a17.31 17.31 0 0 0-5.078.758 28.14 28.14 0 0 0 .046-1.542c0-15.166-12.295-27.461-27.461-27.461s-27.461 12.295-27.461 27.461c0 1.567.138 3.1.39 4.595-.131-.004-.258-.02-.39-.02-7.441 0-13.473 6.032-13.473 13.473 0 .119.015.234.018.352h90.728z"></path><path fill="#5c3f6b" d="M340.905 740.677c-25.322 0-45.922-20.601-45.922-45.922 0-25.322 20.601-45.923 45.922-45.923s45.923 20.601 45.923 45.923c0 25.321-20.601 45.922-45.923 45.922z"></path><path fill="none" stroke="#523160" stroke-linecap="round" stroke-linejoin="round" stroke-miterlimit="10" stroke-width="8" d="M340.905 740.677c-25.322 0-45.922-20.601-45.922-45.922 0-25.322 20.601-45.923 45.922-45.923s45.923 20.601 45.923 45.923c0 25.321-20.601 45.922-45.923 45.922z"></path><path fill="#fdc858" d="M340.905 718.754c-13.233 0-24-10.766-24-23.999 0-13.234 10.766-24.001 24-24.001s24 10.766 24 24.001c.001 13.233-10.766 23.999-24 23.999z"></path><path fill="none" stroke="#523160" stroke-linecap="round" stroke-linejoin="round" stroke-miterlimit="10" stroke-width="8" d="M340.905 718.754c-13.233 0-24-10.766-24-23.999 0-13.234 10.766-24.001 24-24.001s24 10.766 24 24.001c.001 13.233-10.766 23.999-24 23.999z"></path><path fill="#fdc858" d="M340.905 702.677c-4.368 0-7.922-3.554-7.922-7.922 0-4.369 3.554-7.923 7.922-7.923 4.369 0 7.923 3.554 7.923 7.923 0 4.368-3.554 7.922-7.923 7.922z"></path><path fill="none" stroke="#523160" stroke-linecap="round" stroke-linejoin="round" stroke-miterlimit="10" stroke-width="8" d="M340.905 702.677c-4.368 0-7.922-3.554-7.922-7.922 0-4.369 3.554-7.923 7.922-7.923 4.369 0 7.923 3.554 7.923 7.923 0 4.368-3.554 7.922-7.923 7.922z"></path><path fill="#8e63ad" d="m707.853 555.101-9.379-35.693a35.542 35.542 0 0 0-30.559-26.308c-41.996-4.537-92.886-7.109-152.338-7.109-68.029 0-172.484 5.225-203.889 8.783a15.957 15.957 0 0 0-12.88 9.591l-18.878 44.188a125.167 125.167 0 0 0-15.513 50.611l-.406 99.412 21.143.361a56.7 56.7 0 0 1-.172-4.182c0-30.885 25.037-55.923 55.923-55.923 30.885 0 55.923 25.037 55.923 55.923 0 1.787-.093 3.551-.257 5.295l146.975 1.832a56.41 56.41 0 0 1-.468-7.127c0-30.885 25.037-55.923 55.923-55.923 30.885 0 55.923 25.037 55.923 55.923a56.43 56.43 0 0 1-.608 8.233l59.341.593V600.02a176.781 176.781 0 0 0-5.804-44.919z"></path><g opacity=".36"><path fill="#8e63ad" d="m275.177 698.575.406-99.412a125.176 125.176 0 0 1 15.513-50.611l18.878-44.188a15.957 15.957 0 0 1 12.88-9.591c30.481-3.454 129.771-8.477 197.787-8.769-1.689-.004-3.361-.014-5.064-.014-68.029 0-172.484 5.225-203.889 8.783a15.957 15.957 0 0 0-12.88 9.591l-18.878 44.188a125.167 125.167 0 0 0-15.513 50.611l-.406 99.412 21.143.361c-.005-.063-.007-.128-.011-.191l-9.966-.17zM665.482 702.988a56.3 56.3 0 0 0 .608-8.233c0-30.885-25.037-55.923-55.923-55.923a56.59 56.59 0 0 0-5.583.278c28.263 2.802 50.339 26.643 50.339 55.644a56.43 56.43 0 0 1-.608 8.233l59.341.593v-.112l-48.174-.48z"></path><path fill="#8e63ad" d="M407.737 700.05c.164-1.744.257-3.508.257-5.295 0-30.885-25.037-55.923-55.923-55.923a56.59 56.59 0 0 0-5.583.278c28.263 2.802 50.339 26.643 50.339 55.644 0 1.787-.093 3.551-.257 5.295l146.975 1.832-.016-.139-135.792-1.692z"></path></g><path fill="#8e63ad" d="M407.855 691H541.5v-13.275H405.345a55.786 55.786 0 0 1 2.51 13.275z" opacity=".36"></path><path fill="#8e63ad" d="m709.853 554.101-9.379-35.693a35.542 35.542 0 0 0-30.559-26.308c-41.996-4.537-92.886-7.109-152.338-7.109-68.029 0-172.484 5.225-203.889 8.783a15.955 15.955 0 0 0-11.829 7.558c.023-.003.045-1.691.068-1.693 31.405-3.558 135.86-7.1 203.889-7.1 59.451 0 110.342 2.573 152.338 7.109a35.542 35.542 0 0 1 30.559 26.308l9.379 35.693a176.736 176.736 0 0 1 5.803 44.919v95.896l11.761.118V599.02c0-15.16-1.95-30.257-5.803-44.919z" opacity=".25"></path><path fill="none" stroke="#523160" stroke-linecap="round" stroke-linejoin="round" stroke-miterlimit="10" stroke-width="8" d="m707.853 555.101-9.379-35.693a35.542 35.542 0 0 0-30.559-26.308c-41.996-4.537-92.886-7.109-152.338-7.109-68.029 0-172.484 5.225-203.889 8.783a15.957 15.957 0 0 0-12.88 9.591l-18.878 44.188a125.167 125.167 0 0 0-15.513 50.611l-.406 99.412 21.143.361a56.7 56.7 0 0 1-.172-4.182c0-30.885 25.037-55.923 55.923-55.923 30.885 0 55.923 25.037 55.923 55.923 0 1.787-.093 3.551-.257 5.295l146.975 1.832a56.41 56.41 0 0 1-.468-7.127c0-30.885 25.037-55.923 55.923-55.923 30.885 0 55.923 25.037 55.923 55.923a56.43 56.43 0 0 1-.608 8.233l59.341.593V600.02a176.781 176.781 0 0 0-5.804-44.919z"></path><path fill="#5c3f6b" d="M599.002 740.677c-25.322 0-45.923-20.601-45.923-45.922 0-25.322 20.601-45.923 45.923-45.923 25.321 0 45.922 20.601 45.922 45.923 0 25.321-20.601 45.922-45.922 45.922z"></path><path fill="none" stroke="#523160" stroke-linecap="round" stroke-linejoin="round" stroke-miterlimit="10" stroke-width="8" d="M599.002 740.677c-25.322 0-45.923-20.601-45.923-45.922 0-25.322 20.601-45.923 45.923-45.923 25.321 0 45.922 20.601 45.922 45.923 0 25.321-20.601 45.922-45.922 45.922z"></path><path fill="#fdc858" d="M599.002 718.754c-13.234 0-24.001-10.766-24.001-23.999 0-13.234 10.766-24.001 24.001-24.001 13.233 0 23.999 10.766 23.999 24.001 0 13.233-10.766 23.999-23.999 23.999z"></path><path fill="none" stroke="#523160" stroke-linecap="round" stroke-linejoin="round" stroke-miterlimit="10" stroke-width="8" d="M599.002 718.754c-13.234 0-24.001-10.766-24.001-23.999 0-13.234 10.766-24.001 24.001-24.001 13.233 0 23.999 10.766 23.999 24.001 0 13.233-10.766 23.999-23.999 23.999z"></path><path fill="#fdc858" d="M599.002 702.677c-4.369 0-7.923-3.554-7.923-7.922 0-4.369 3.554-7.923 7.923-7.923 4.368 0 7.922 3.554 7.922 7.923 0 4.368-3.554 7.922-7.922 7.922z"></path><path fill="none" stroke="#523160" stroke-linecap="round" stroke-linejoin="round" stroke-miterlimit="10" stroke-width="8" d="M599.002 702.677c-4.369 0-7.923-3.554-7.923-7.922 0-4.369 3.554-7.923 7.923-7.923 4.368 0 7.922 3.554 7.922 7.923 0 4.368-3.554 7.922-7.922 7.922z"></path><path fill="#fff" d="M264.011 707.5h-10.928a8.083 8.083 0 0 1-8.083-8.083v-32.251a8.083 8.083 0 0 1 8.083-8.083h10.928V707.5z"></path><path fill="none" stroke="#523160" stroke-linecap="round" stroke-linejoin="round" stroke-miterlimit="10" stroke-width="8" d="M264.011 707.5h-10.928a8.083 8.083 0 0 1-8.083-8.083v-32.251a8.083 8.083 0 0 1 8.083-8.083h10.928V707.5z"></path><path fill="#fff" d="M265.625 646h-4a5.374 5.374 0 0 1-5.375-5.375v-24.75a5.374 5.374 0 0 1 5.375-5.375h4a5.374 5.374 0 0 1 5.375 5.375v24.75a5.374 5.374 0 0 1-5.375 5.375z"></path><path fill="none" stroke="#523160" stroke-linecap="round" stroke-linejoin="round" stroke-miterlimit="10" stroke-width="8" d="M265.625 646h-4a5.374 5.374 0 0 1-5.375-5.375v-24.75a5.374 5.374 0 0 1 5.375-5.375h4a5.374 5.374 0 0 1 5.375 5.375v24.75a5.374 5.374 0 0 1-5.375 5.375z"></path><path fill="#fff" d="M721.252 715.177h-43a9 9 0 0 1-9-9v-7a9 9 0 0 1 9-9h43a9 9 0 0 1 9 9v7a9 9 0 0 1-9 9z"></path><path fill="#d8d8d8" d="M678.919 705.481a4.6 4.6 0 0 1 4.6-4.6h46.733v-1.705a9 9 0 0 0-9-9h-43a9 9 0 0 0-9 9v7a9 9 0 0 0 9 9h.667v-9.695z"></path><path fill="none" stroke="#523160" stroke-linecap="round" stroke-linejoin="round" stroke-miterlimit="10" stroke-width="8" d="M721.252 715.177h-43a9 9 0 0 1-9-9v-7a9 9 0 0 1 9-9h43a9 9 0 0 1 9 9v7a9 9 0 0 1-9 9z"></path><path fill="#fdc858" d="M648.547 578.285h-46.319c-5.279 0-9.559-4.28-9.559-9.559v-46.667c0-5.279 4.28-9.559 9.559-9.559h28.126c11.108 0 20.549 8.115 22.218 19.096l5.426 35.694c.879 5.785-3.6 10.995-9.451 10.995z"></path><path fill="#fdc858" d="M612.204 533.5c0-5.279 4.28-9.559 9.559-9.559h28.126l.046.002c-3.886-6.894-11.266-11.443-19.582-11.443h-28.126c-5.279 0-9.559 4.28-9.559 9.559v46.667c0 5.279 4.28 9.559 9.559 9.559h9.976V533.5z" opacity=".56"></path><path fill="none" stroke="#523160" stroke-linecap="round" stroke-linejoin="round" stroke-miterlimit="10" stroke-width="8" d="M648.547 578.285h-46.319c-5.279 0-9.559-4.28-9.559-9.559v-46.667c0-5.279 4.28-9.559 9.559-9.559h28.126c11.108 0 20.549 8.115 22.218 19.096l5.426 35.694c.879 5.785-3.6 10.995-9.451 10.995z"></path><path fill="#fdc858" d="M561.774 577.285H459.559c-5.279 0-9.559-4.28-9.559-9.559v-46.667c0-5.279 4.28-9.559 9.559-9.559h102.215c5.279 0 9.559 4.28 9.559 9.559v46.667a9.558 9.558 0 0 1-9.559 9.559z"></path><path fill="#fdc858" d="M468.538 531.279c0-5.279 4.28-9.559 9.559-9.559h93.237v-.66c0-5.279-4.28-9.559-9.559-9.559H459.559c-5.279 0-9.559 4.28-9.559 9.559v46.667c0 5.279 4.28 9.559 9.559 9.559h8.979v-46.007z" opacity=".56"></path><path fill="none" stroke="#523160" stroke-linecap="round" stroke-linejoin="round" stroke-miterlimit="10" stroke-width="8" d="M561.774 577.285H459.559c-5.279 0-9.559-4.28-9.559-9.559v-46.667c0-5.279 4.28-9.559 9.559-9.559h102.215c5.279 0 9.559 4.28 9.559 9.559v46.667a9.558 9.558 0 0 1-9.559 9.559z"></path><path fill="#fdc858" d="M403.54 578.285h-96.273c-5.38 0-9.276-6.039-7.826-12.134l11.097-46.667c.982-4.129 4.181-6.984 7.826-6.984h85.176c4.488 0 8.127 4.28 8.127 9.559v46.667c-.001 5.28-3.639 9.559-8.127 9.559z"></path><path fill="#fdc858" d="m317.44 576.04 11.097-46.667c.982-4.129 4.181-6.984 7.826-6.984h75.303v-.33c0-5.279-3.638-9.559-8.127-9.559h-85.176c-3.645 0-6.844 2.855-7.826 6.984l-11.097 46.667c-1.449 6.095 2.446 12.134 7.826 12.134h9.875c.024-.74.12-1.492.299-2.245z" opacity=".56"></path><path fill="none" stroke="#523160" stroke-linecap="round" stroke-linejoin="round" stroke-miterlimit="10" stroke-width="8" d="M403.54 578.285h-96.273c-5.38 0-9.276-6.039-7.826-12.134l11.097-46.667c.982-4.129 4.181-6.984 7.826-6.984h85.176c4.488 0 8.127 4.28 8.127 9.559v46.667c-.001 5.28-3.639 9.559-8.127 9.559z"></path><path fill="none" stroke="#523160" stroke-linecap="round" stroke-linejoin="round" stroke-miterlimit="10" stroke-width="2" d="M413.407 490.744h0c11.373 0 20.593 9.22 20.593 20.593v189.179" opacity=".48"></path><path fill="none" stroke="#523160" stroke-linecap="round" stroke-linejoin="round" stroke-miterlimit="10" stroke-width="8" d="M386.828 602.333h30M542.5 600h25.579"></path><path fill="#d8d8d8" d="M716.252 669.462h-3.916V574h3.916c6.627 0 12 5.373 12 12v71.462c0 6.628-5.373 12-12 12z"></path><path fill="none" stroke="#523160" stroke-linecap="round" stroke-linejoin="round" stroke-miterlimit="10" stroke-width="8" d="M716.252 669.462h-3.916V574h3.916c6.627 0 12 5.373 12 12v71.462c0 6.628-5.373 12-12 12zM669.252 522.5h12.12M674.291 539.667h12.12M679.009 556.833h12.121M681.048 574h12.121"></path><path fill="#fff" d="M534.807 706.677H405.506c-5.353 0-9.693-4.34-9.693-9.693s4.34-9.693 9.693-9.693h129.302c5.353 0 9.693 4.34 9.693 9.693-.001 5.353-4.341 9.693-9.694 9.693z"></path><path fill="#fff" d="M534.807 706.677H405.506c-5.353 0-9.693-4.34-9.693-9.693s4.34-9.693 9.693-9.693h129.302c5.353 0 9.693 4.34 9.693 9.693-.001 5.353-4.341 9.693-9.694 9.693z"></path><path fill="#d8d8d8" d="M395.813 687.291H544.5v9.693H395.813z"></path><path fill="none" stroke="#523160" stroke-linecap="round" stroke-linejoin="round" stroke-miterlimit="10" stroke-width="8" d="M534.807 706.677H405.506c-5.353 0-9.693-4.34-9.693-9.693h0c0-5.353 4.34-9.693 9.693-9.693h129.302c5.353 0 9.693 4.34 9.693 9.693h0c-.001 5.353-4.341 9.693-9.694 9.693z"></path><path fill="none" stroke="#523160" stroke-linecap="round" stroke-linejoin="round" stroke-miterlimit="10" stroke-width="4" d="m326.25 553.5 19.5-19.75M342.828 555.281l26.323-26.572M478.55 551.172l19.5-19.75M495.128 552.953l26.322-26.573M605.263 553.139l16.125-16.332M618.972 554.612l21.768-21.974"></path><path fill="#fdc858" d="m769.716 605.925 82.61-195.618c1.791-4.242 7.803-4.242 9.594 0l82.61 195.618c9.888 23.415-11.16 47.887-41.188 47.887h-92.438c-30.027 0-51.076-24.472-41.188-47.887z"></path><path fill="#fdc858" d="m769.716 605.925 82.61-195.618c1.791-4.242 7.803-4.242 9.594 0l82.61 195.618c9.888 23.415-11.16 47.887-41.188 47.887h-92.438c-30.027 0-51.076-24.472-41.188-47.887z"></path><path fill="#fdc858" d="m810.093 615.123 58.861-188.162-7.033-16.653c-1.791-4.242-7.803-4.242-9.594 0l-82.61 195.618c-9.888 23.415 11.16 47.887 41.188 47.887h6.97c-8.66-7.394-12.083-19.727-7.782-38.69z" opacity=".56"></path><path fill="none" stroke="#523160" stroke-linecap="round" stroke-linejoin="round" stroke-miterlimit="10" stroke-width="8" d="M857.124 740.677V446.333M880.882 487.28 857.124 510l-23.758-22.72M885.415 530.508l-28.291 27.056-28.291-27.056M904.333 579.687l-47.209 37.552-47.21-37.552"></path><path fill="none" stroke="#d4c0e2" stroke-linecap="round" stroke-linejoin="round" stroke-miterlimit="10" stroke-width="8" d="m592.022 151.669-12.021 12.021-12.021-12.021M681.273 167.258l-12.021 12.021-12.021-12.021M871.453 231.791l-12.021 12.021-12.021-12.021"></path><path fill="none" stroke="#523160" stroke-linecap="round" stroke-linejoin="round" stroke-miterlimit="10" stroke-width="8" d="M755 740.677H477M480.667 740.677H447"></path></svg>